<svg height="512pt" viewBox="-102 0 512 512" width="512pt" xmlns="http://www.w3.org/2000/svg"><path d="m10 382c-2.628906 0-5.210938-1.070312-7.070312-2.929688-1.859376-1.859374-2.929688-4.441406-2.929688-7.070312s1.070312-5.210938 2.929688-7.070312c1.859374-1.859376 4.441406-2.929688 7.070312-2.929688s5.210938 1.070312 7.070312 2.929688c1.859376 1.859374 2.929688 4.441406 2.929688 7.070312s-1.070312 5.210938-2.929688 7.070312c-1.859374 1.859376-4.441406 2.929688-7.070312 2.929688zm0 0"/><path d="m279.117188 183.550781c-17.148438-23.332031-40.234376-40.792969-67.117188-50.941406v-33.347656c0-5.519531-4.476562-10-10-10h-18v-29.261719h16.976562l22.390626 14.898438c1.6875 1.125 3.617187 1.671874 5.535156 1.671874 2.582031 0 5.144531-.996093 7.074218-2.925781l20.316407-20.316406c1.875-1.875 2.929687-4.417969 2.929687-7.070313 0-2.652343-1.054687-5.195312-2.929687-7.070312l-36.257813-36.257812c-1.878906-1.875-4.421875-2.929688-7.070312-2.929688h-114.1875c-5.519532 0-10 4.476562-10 10v40c0 5.523438 4.480468 10 10 10h25.222656v29.261719h-18c-5.523438 0-10 4.480469-10 10v33.347656c-26.882812 10.148437-49.96875 27.613281-67.117188 50.941406-18.894531 25.699219-28.882812 56.144531-28.882812 88.042969v60.90625c0 5.523438 4.476562 10 10 10s10-4.476562 10-10v-60.90625c0-56.066406 35.640625-105.039062 88.84375-122.332031h90.3125c53.203125 17.292969 88.84375 66.265625 88.84375 122.332031v180.074219c0 22.238281-18.09375 40.332031-40.332031 40.332031h-187.335938c-22.238281 0-40.332031-18.09375-40.332031-40.332031v-42.167969c0-5.523438-4.476562-10-10-10s-10 4.476562-10 10v42.167969c0 33.265625 27.066406 60.332031 60.332031 60.332031h187.335938c33.265625 0 60.332031-27.066406 60.332031-60.332031v-180.074219c0-31.898438-9.988281-62.34375-28.882812-88.042969zm-170.339844-163.550781h100.042968l26.257813 26.257812-7.453125 7.453126-18.085938-12.035157c-1.640624-1.09375-3.566406-1.675781-5.539062-1.675781h-95.222656zm35.222656 40h20v29.261719h-20zm-28 69.261719v-20h76v20zm0 0"/><path d="m242 461.667969c-5.523438 0-10-4.480469-10-10v-89.667969c0-5.523438 4.476562-10 10-10s10 4.476562 10 10v89.667969c0 5.519531-4.476562 10-10 10zm0 0"/><path d="m242 337c-2.628906 0-5.210938-1.070312-7.070312-2.929688-1.859376-1.859374-2.929688-4.441406-2.929688-7.070312s1.070312-5.210938 2.929688-7.070312c1.859374-1.859376 4.441406-2.929688 7.070312-2.929688s5.210938 1.070312 7.070312 2.929688c1.859376 1.859374 2.929688 4.441406 2.929688 7.070312s-1.070312 5.210938-2.929688 7.070312c-1.859374 1.859376-4.441406 2.929688-7.070312 2.929688zm0 0"/></svg>