<?xml version='1.0' encoding='iso-8859-1'?>
<!DOCTYPE svg PUBLIC '-//W3C//DTD SVG 1.1//EN' 'http://www.w3.org/Graphics/SVG/1.1/DTD/svg11.dtd'>
<svg version="1.1" xmlns="http://www.w3.org/2000/svg" viewBox="0 0 465.942 465.942" xmlns:xlink="http://www.w3.org/1999/xlink" enable-background="new 0 0 465.942 465.942">
  <path d="m464.896,158.869c-38.369-64.88-92.943-119.454-157.823-157.824-3.562-2.108-8.165-0.927-10.272,2.638l-120.718,204.121-2.077-2.077c-8.688-8.687-22.823-8.686-31.51,0l-1.465,1.465c-4.208,4.208-6.526,9.804-6.526,15.755 0,2.796 0.53,5.506 1.509,8.037-41.504,27.744-76.501,62.743-104.245,104.248-7.974-3.071-17.367-1.41-23.788,5.01l-1.464,1.464c-8.687,8.688-8.687,22.823 0,31.51l86.209,86.209c4.344,4.343 10.049,6.515 15.755,6.515s11.411-2.172 15.755-6.515l1.465-1.465c6.421-6.421 8.081-15.814 5.01-23.788 41.507-27.745 76.507-62.745 104.252-104.252 2.58,0.994 5.304,1.505 8.033,1.505 5.705,0 11.411-2.172 15.754-6.514l1.466-1.465c8.688-8.688 8.688-22.823 0-31.51l-2.078-2.078 204.122-120.717c3.564-2.107 4.745-6.707 2.636-10.272zm-353.339,284.95l-1.465,1.465c-0.889,0.89-2.336,0.89-3.225,0l-86.209-86.209c-0.89-0.889-0.89-2.336 0-3.225l1.464-1.464c0.444-0.445 1.028-0.667 1.612-0.667 0.584,0 1.168,0.222 1.613,0.667l2.078,2.078 82.054,82.054 2.078,2.078c0.889,0.888 0.889,2.334 0,3.223zm6.356-25.153l-70.638-70.638c26.825-40.609 60.932-74.716 101.541-101.541l70.638,70.638c-26.825,40.609-60.932,74.716-101.541,101.541zm128.16-109.363l-1.466,1.465c-0.889,0.89-2.336,0.89-3.225,0l-84.132-84.132c-0.002-0.002-0.004-0.003-0.006-0.005l-2.072-2.072c-0.89-0.889-0.89-2.336 0-3.225l1.465-1.465c0.444-0.445 1.028-0.667 1.613-0.667 0.584,0 1.168,0.222 1.612,0.667l86.209,86.209c0.891,0.89 0.891,2.337 0.002,3.225zm1.114-30.394l-60.153-60.154 118.826-200.924c57.766,35.537 106.714,84.485 142.251,142.251l-200.924,118.827z"/>
</svg>
