<?xml version="1.0" standalone="no"?>
<!DOCTYPE svg PUBLIC "-//W3C//DTD SVG 20010904//EN"
 "http://www.w3.org/TR/2001/REC-SVG-20010904/DTD/svg10.dtd">
<svg version="1.0" xmlns="http://www.w3.org/2000/svg"
 width="512.000000pt" height="512.000000pt" viewBox="0 0 512.000000 512.000000"
 preserveAspectRatio="xMidYMid meet">
<metadata>
Created by potrace 1.11, written by Peter Selinger 2001-2013
</metadata>
<g transform="translate(0.000000,512.000000) scale(0.100000,-0.100000)"
fill="#000000" stroke="none">
<path d="M2425 5114 c-122 -27 -173 -41 -245 -72 -353 -148 -582 -483 -599
-877 -1 -17 -9 -20 -49 -23 -131 -8 -244 -92 -288 -214 -8 -24 -15 -74 -15
-112 0 -150 96 -265 259 -312 9 -3 12 -298 12 -1433 l0 -1431 -27 -6 c-144
-35 -247 -167 -245 -315 1 -129 72 -237 191 -293 46 -21 51 -21 1126 -23 1186
-3 1118 -6 1211 58 162 111 181 343 40 484 -45 46 -88 69 -164 91 -10 3 -12
295 -10 1436 l3 1432 35 11 c132 39 232 167 231 294 -1 75 -7 105 -36 160 -49
95 -144 158 -256 168 -33 3 -59 11 -60 17 0 6 -2 31 -4 57 -26 351 -247 670
-568 819 -127 59 -229 82 -382 85 -77 2 -149 1 -160 -1z"/>
</g>
</svg>
